<?xml version="1.0" encoding="UTF-8" standalone="no"?>
<svg
   viewBox="0 0 9.4340591 9.436236"
   version="1.1"
   id="svg859"
   sodipodi:docname="cross.svg"
   inkscape:version="1.1 (c68e22c387, 2021-05-23)"
   width="9.4340591"
   height="9.4362364"
   xmlns:inkscape="http://www.inkscape.org/namespaces/inkscape"
   xmlns:sodipodi="http://sodipodi.sourceforge.net/DTD/sodipodi-0.dtd"
   xmlns="http://www.w3.org/2000/svg"
   xmlns:svg="http://www.w3.org/2000/svg">
  <sodipodi:namedview
     id="namedview861"
     pagecolor="#ffffff"
     bordercolor="#666666"
     borderopacity="1.0"
     inkscape:pageshadow="2"
     inkscape:pageopacity="0.0"
     inkscape:pagecheckerboard="0"
     showgrid="false"
     inkscape:zoom="22.627417"
     inkscape:cx="-1.3700194"
     inkscape:cy="-5.8999222"
     inkscape:window-width="1920"
     inkscape:window-height="1111"
     inkscape:window-x="-9"
     inkscape:window-y="-9"
     inkscape:window-maximized="1"
     inkscape:current-layer="svg859"
     inkscape:snap-bbox="true"
     inkscape:object-paths="true"
     inkscape:snap-intersection-paths="true"
     inkscape:snap-smooth-nodes="true"
     inkscape:snap-midpoints="true"
     inkscape:snap-object-midpoints="true"
     inkscape:snap-center="true"
     inkscape:snap-bbox-midpoints="true"
     inkscape:snap-bbox-edge-midpoints="true"
     inkscape:bbox-nodes="true"
     inkscape:bbox-paths="true"
     fit-margin-top="0"
     fit-margin-left="0"
     fit-margin-right="0"
     fit-margin-bottom="0" />
  <defs
     id="defs855">
    <clipPath
       id="clipPath849">
      <path
         fill="#0000ff"
         fill-opacity="0.514"
         d="m -7,1024.36 h 34 v 34 H -7 Z"
         id="path847" />
    </clipPath>
    <clipPath
       id="clipPath853">
      <path
         fill="#aade87"
         fill-opacity="0.472"
         d="m -6,1028.36 h 32 v 32 H -6 Z"
         id="path851" />
    </clipPath>
  </defs>
  <path
     id="path1259"
     style="color:#000000;fill:#4d4d4d;fill-opacity:1;stroke:#ffffff;stroke-width:0.5;stroke-linecap:round;stroke-miterlimit:4;stroke-dasharray:none;stroke-opacity:1"
     d="m 1.0920294,0.26217544 a 1,1 0 0 0 -0.550781,0.28125 1,1 0 0 0 0,1.41406296 l 2.761719,2.761718 -2.761719,2.761719 a 1,1 0 0 0 0,1.414063 1,1 0 0 0 1.414062,0 l 2.761719,-2.761719 2.761719,2.761719 a 1,1 0 0 0 1.414062,0 1,1 0 0 0 0,-1.414063 l -2.761718,-2.761719 2.761718,-2.761718 a 1,1 0 0 0 0,-1.41406296 1,1 0 0 0 -1.414062,0 L 4.7170294,3.3051444 1.9553104,0.54342544 a 1,1 0 0 0 -0.863281,-0.28125 z" />
</svg>
