<?xml version="1.0" encoding="UTF-8" standalone="no"?>
<svg
   version="1.0"
   width="1280.000000pt"
   height="1278.000000pt"
   viewBox="0 0 1280.000000 1278.000000"
   preserveAspectRatio="xMidYMid meet"
   id="svg8"
   sodipodi:docname="laser.svg"
   inkscape:version="1.1 (c68e22c387, 2021-05-23)"
   xmlns:inkscape="http://www.inkscape.org/namespaces/inkscape"
   xmlns:sodipodi="http://sodipodi.sourceforge.net/DTD/sodipodi-0.dtd"
   xmlns="http://www.w3.org/2000/svg"
   xmlns:svg="http://www.w3.org/2000/svg">
  <defs
     id="defs12" />
  <sodipodi:namedview
     id="namedview10"
     pagecolor="#ffffff"
     bordercolor="#666666"
     borderopacity="1.0"
     inkscape:pageshadow="2"
     inkscape:pageopacity="0.0"
     inkscape:pagecheckerboard="0"
     inkscape:document-units="pt"
     showgrid="false"
     inkscape:zoom="0.15623574"
     inkscape:cx="857.67828"
     inkscape:cy="854.47798"
     inkscape:window-width="1920"
     inkscape:window-height="1111"
     inkscape:window-x="-9"
     inkscape:window-y="-9"
     inkscape:window-maximized="1"
     inkscape:current-layer="svg8" />
  <metadata
     id="metadata2">
Created by potrace 1.15, written by Peter Selinger 2001-2017
</metadata>
  <path
     style="fill:#000000;stroke-width:4.62679"
     d="m 604.83653,1262.269 -15.73111,-15.7312 v -108.13 -108.13 l -33.54416,-10.48 c -18.44935,-5.7638 -44.99552,-17.6137 -58.9916,-26.33302 l -25.44735,-15.8532 -51.10476,50.85562 c -40.84342,40.6441 -54.40259,51.3906 -67.52899,53.5206 -22.55888,3.6608 -44.49218,-8.3705 -53.18437,-29.1736 -11.79543,-28.2308 -5.4361,-40.5366 50.10986,-96.96732 l 50.67878,-51.48605 -16.15136,-32.07263 c -8.88343,-17.63987 -19.5958,-43.92002 -23.80521,-58.40015 l -7.65368,-26.32778 H 217.35005 c -147.872378,0 -148.322918,-0.0771 -162.665188,-27.81181 -8.76007,-16.94003 -8.69085,-24.87981 0.38363,-44.00348 13.74812,-28.9718 20.22697,-29.97407 193.740078,-29.97407 170.02371,0 176.19294,0.86945 189.20251,26.6823 3.50539,6.95504 7.59467,26.17877 9.08743,42.71954 3.3876,37.53946 12.24616,62.86656 32.81837,93.82787 31.49478,47.39985 84.00846,76.3938 146.20267,80.72162 106.52934,7.41284 191.32591,-60.58863 204.66994,-164.13189 6.08888,-47.24723 11.48269,-60.64892 28.61419,-71.09582 13.19813,-8.04811 25.80105,-8.69028 170.86082,-8.70628 174.5367,-0.0186 180.9074,0.96007 194.6667,29.95673 9.0749,19.12367 9.1441,27.06345 0.3837,44.00348 -14.3423,27.73471 -14.7928,27.81181 -162.6653,27.81181 H 927.51718 l -7.6537,26.32778 c -4.20959,14.48013 -14.93872,40.79365 -23.84265,58.47449 l -16.18894,32.14697 99.3338,99.99289 c 54.63341,54.9961 100.80761,104.8586 102.60921,110.8054 9.7439,32.1659 -15.5983,65.5296 -49.7744,65.5296 -18.6691,0 -21.2364,-2.1532 -121.09831,-101.5681 L 808.8774,977.70118 l -24.44489,15.4755 c -13.44467,8.51182 -39.95349,20.38392 -58.90864,26.38282 l -34.46365,10.9073 -0.0775,108.0355 -0.0775,108.0355 -15.73111,15.7312 c -12.89622,12.8961 -19.23302,15.731 -35.16358,15.731 -15.93065,0 -22.26737,-2.8349 -35.16359,-15.731 z m 3.88131,-429.99017 C 538.54485,806.82908 518.50447,719.35754 570.85317,667.00869 l 18.25225,-18.2521 V 340.61241 32.468221 l 15.73111,-15.731086 c 22.31621,-22.3161543 48.01105,-22.3161543 70.32726,0 l 15.73102,15.731086 v 309.925499 309.9253 l 11.35185,7.43814 c 6.24348,4.09085 16.87215,16.8579 23.61934,28.3709 45.17233,77.08078 -33.87689,174.35076 -117.14816,144.15077 z M 424.85447,588.74328 c -5.08947,-2.14799 -47.25112,-42.22351 -93.69253,-89.05664 -83.13762,-83.83897 -84.43891,-85.457 -84.43891,-104.99361 0,-16.39677 2.73175,-22.57411 15.73109,-35.57347 17.50777,-17.50777 35.92336,-20.44559 57.37065,-9.15217 20.59056,10.8423 171.07075,165.53245 174.52096,179.40357 9.74479,39.17716 -32.27568,75.07853 -69.49126,59.37232 z M 840.45794,563.3501 c -8.07819,-3.51385 -18.17617,-11.71291 -22.43991,-18.2201 -8.71283,-13.29759 -10.18112,-38.90398 -2.97949,-51.96714 2.62474,-4.76154 68.93818,-72.54246 147.36325,-150.62437 93.05651,-92.64933 147.01061,-143.05145 155.31441,-145.08859 31.044,-7.61666 58.6648,12.65754 62.4008,45.80367 l 2.4988,22.16964 -145.2278,145.88866 C 910.58192,538.6951 874.5281,570.70901 858.7646,569.92015 c -1.99027,-0.0964 -10.2283,-3.05619 -18.30666,-6.57005 z"
     id="path1432" />
</svg>
