<?xml version="1.0" encoding="UTF-8" standalone="no"?>
<!-- Uploaded to: SVG Repo, www.svgrepo.com, Generator: SVG Repo Mixer Tools -->

<svg
   fill="#000000"
   height="1704"
   width="1707"
   version="1.1"
   id="Layer_1"
   viewBox="0 0 1091.9018 1089.9828"
   xml:space="preserve"
   sodipodi:docname="leather.svg"
   inkscape:version="1.1 (c68e22c387, 2021-05-23)"
   xmlns:inkscape="http://www.inkscape.org/namespaces/inkscape"
   xmlns:sodipodi="http://sodipodi.sourceforge.net/DTD/sodipodi-0.dtd"
   xmlns="http://www.w3.org/2000/svg"
   xmlns:svg="http://www.w3.org/2000/svg"><defs
   id="defs11" /><sodipodi:namedview
   id="namedview9"
   pagecolor="#ffffff"
   bordercolor="#666666"
   borderopacity="1.0"
   inkscape:pageshadow="2"
   inkscape:pageopacity="0.0"
   inkscape:pagecheckerboard="0"
   showgrid="false"
   fit-margin-top="0"
   fit-margin-left="0"
   fit-margin-right="0"
   fit-margin-bottom="0"
   inkscape:zoom="0.2353125"
   inkscape:cx="84.99336"
   inkscape:cy="1633.9973"
   inkscape:window-width="1920"
   inkscape:window-height="1111"
   inkscape:window-x="-9"
   inkscape:window-y="-9"
   inkscape:window-maximized="1"
   inkscape:current-layer="Layer_1" />
<g
   id="g6"
   transform="matrix(2.1299917,0,0,2.1299917,0.9654017,0.00214272)">
	<g
   id="g4">
		<path
   d="m 466.702,369.163 c -52.941,-52.941 -52.941,-156.86 0,-209.801 2.014,-2.014 2.722,-5.734 2.159,-8.533 -5.803,-29.039 -22.05,-54.818 -45.739,-72.593 -2.321,-1.732 -5.359,-2.185 -8.073,-1.178 -29.943,11.034 -54.494,10.871 -72.943,-0.452 -29.79,-18.287 -35.046,-60.365 -35.098,-60.792 -0.367,-3.106 -2.406,-5.777 -5.308,-6.938 -29.559,-11.836 -62.114,-11.836 -91.674,0 -2.901,1.161 -4.941,3.831 -5.308,6.938 -0.051,0.427 -5.308,42.505 -35.098,60.792 -18.449,11.324 -42.991,11.477 -72.943,0.452 -2.722,-1.007 -5.751,-0.555 -8.073,1.178 -23.689,17.775 -39.936,43.554 -45.909,73.412 -0.563,2.799 0.316,5.692 2.33,7.714 52.941,52.941 52.941,156.86 0,209.801 -2.014,2.014 -2.722,5.734 -2.159,8.542 5.803,29.03 22.05,54.81 45.739,72.585 2.27,1.707 5.248,2.15 7.936,1.229 4.548,-1.579 111.957,-37.666 151.475,55.023 1.34,3.149 4.429,5.188 7.851,5.188 3.413,0 6.502,-2.039 7.842,-5.188 39.518,-92.698 146.918,-56.61 151.475,-55.023 2.68,0.922 5.658,0.478 7.936,-1.229 23.689,-17.775 39.936,-43.554 45.909,-73.412 0.566,-2.8 -0.313,-5.693 -2.327,-7.715 z M 82.233,150.146 c -1.852,-2.406 -2.278,-5.623 -1.126,-8.431 3.593,-8.755 8.568,-16.802 14.797,-23.936 2.099,-2.406 5.342,-3.439 8.474,-2.662 6.784,1.673 13.474,2.867 19.866,3.541 4.685,0.495 8.081,4.693 7.586,9.387 -0.486,4.676 -4.634,8.013 -9.378,7.586 -5.478,-0.572 -11.127,-1.493 -16.862,-2.722 -2.594,3.439 -4.847,7.108 -6.75,10.974 3.336,4.642 6.494,9.498 9.412,14.49 2.372,4.07 0.998,9.293 -3.072,11.674 -1.348,0.785 -2.833,1.161 -4.292,1.161 -2.935,0 -5.794,-1.51 -7.381,-4.233 -3.432,-5.881 -7.23,-11.547 -11.274,-16.829 z m 42.675,260.642 c -6.784,0.785 -13.594,1.903 -20.25,3.319 -0.597,0.12 -1.186,0.188 -1.775,0.188 -2.406,0 -4.727,-1.015 -6.366,-2.85 -6.519,-7.296 -11.699,-15.582 -15.411,-24.636 -1.152,-2.816 -0.725,-6.025 1.126,-8.431 4.045,-5.282 7.842,-10.948 11.273,-16.819 2.372,-4.087 7.603,-5.453 11.674,-3.072 4.07,2.372 5.444,7.595 3.072,11.665 -2.918,5.001 -6.076,9.856 -9.412,14.49 2.048,4.156 4.497,8.09 7.339,11.75 5.547,-1.05 11.17,-1.911 16.76,-2.551 4.719,-0.563 8.926,2.807 9.463,7.492 0.545,4.677 -2.817,8.918 -7.493,9.455 z m 9.659,-122.931 c -1.391,13.193 -3.951,26.206 -7.62,38.673 -1.101,3.712 -4.497,6.118 -8.183,6.118 -0.802,0 -1.613,-0.111 -2.423,-0.35 -4.514,-1.331 -7.1,-6.076 -5.768,-10.598 3.379,-11.469 5.743,-23.458 7.014,-35.627 0.495,-4.685 4.617,-8.064 9.387,-7.595 4.684,0.487 8.08,4.686 7.593,9.379 z m -7.594,-37.811 c -0.307,0.034 -0.606,0.051 -0.905,0.051 -4.309,0 -8.013,-3.26 -8.482,-7.646 -1.28,-12.177 -3.644,-24.166 -7.023,-35.627 -1.331,-4.523 1.254,-9.267 5.777,-10.59 4.514,-1.357 9.267,1.246 10.598,5.769 3.669,12.45 6.238,25.463 7.629,38.664 0.487,4.686 -2.909,8.884 -7.594,9.379 z m 82.816,161.604 c -1.186,3.593 -4.523,5.862 -8.107,5.862 -0.879,0 -1.783,-0.137 -2.671,-0.435 -10.342,-3.405 -21.461,-5.709 -33.05,-6.835 -4.693,-0.452 -8.124,-4.625 -7.671,-9.318 0.452,-4.685 4.634,-8.158 9.318,-7.663 12.851,1.246 25.207,3.806 36.745,7.612 4.48,1.476 6.912,6.297 5.436,10.777 z m 1.937,-302.677 c -11.102,9.907 -23.808,17.237 -37.751,21.803 -0.879,0.282 -1.775,0.418 -2.654,0.418 -3.593,0 -6.929,-2.287 -8.107,-5.888 -1.468,-4.471 0.981,-9.293 5.461,-10.761 11.691,-3.823 22.349,-9.975 31.693,-18.304 3.507,-3.149 8.909,-2.842 12.049,0.683 3.132,3.515 2.825,8.909 -0.691,12.049 z m 65.305,326.306 c -5.342,3.891 -10.419,8.269 -15.113,12.996 -1.596,1.613 -3.78,2.526 -6.05,2.526 -2.278,0 -4.463,-0.913 -6.059,-2.526 -4.693,-4.727 -9.771,-9.105 -15.113,-12.996 -3.806,-2.782 -4.634,-8.115 -1.86,-11.93 2.782,-3.797 8.124,-4.634 11.93,-1.86 3.823,2.799 7.543,5.811 11.102,9.003 3.558,-3.191 7.27,-6.204 11.093,-9.003 3.806,-2.773 9.148,-1.937 11.93,1.86 2.774,3.815 1.946,9.148 -1.86,11.93 z m 3.883,-363.802 c -4.25,2.022 -9.344,0.205 -11.358,-4.062 -2.423,-5.111 -4.582,-10.402 -6.443,-15.812 -4.796,-0.469 -9.702,-0.469 -14.498,0 -1.86,5.41 -4.019,10.709 -6.443,15.812 -1.459,3.081 -4.523,4.881 -7.714,4.881 -1.229,0 -2.475,-0.265 -3.652,-0.819 -4.258,-2.022 -6.076,-7.108 -4.062,-11.366 2.85,-5.999 5.291,-12.305 7.253,-18.731 0.939,-3.081 3.541,-5.367 6.716,-5.914 9.907,-1.707 20.378,-1.707 30.302,0 3.174,0.546 5.777,2.833 6.716,5.914 1.963,6.426 4.403,12.723 7.245,18.731 2.014,4.258 0.205,9.352 -4.062,11.366 z m 18.424,25.481 c 3.132,-3.524 8.516,-3.831 12.049,-0.691 9.344,8.329 20.011,14.481 31.701,18.295 4.48,1.468 6.929,6.281 5.461,10.761 -1.169,3.601 -4.514,5.888 -8.107,5.888 -0.879,0 -1.766,-0.137 -2.645,-0.418 -13.952,-4.557 -26.65,-11.887 -37.768,-21.786 -3.516,-3.14 -3.823,-8.533 -0.691,-12.049 z m 46.464,313.276 c -11.597,1.126 -22.724,3.43 -33.058,6.835 -0.888,0.299 -1.792,0.435 -2.671,0.435 -3.584,0 -6.921,-2.27 -8.107,-5.862 -1.476,-4.48 0.956,-9.301 5.436,-10.778 11.537,-3.806 23.893,-6.366 36.745,-7.612 4.71,-0.478 8.866,2.978 9.318,7.663 0.46,4.694 -2.979,8.866 -7.663,9.319 z m 41.685,-291.576 c 6.4,-0.674 13.082,-1.869 19.857,-3.55 3.115,-0.768 6.374,0.256 8.482,2.671 6.229,7.125 11.204,15.181 14.797,23.936 1.152,2.807 0.725,6.025 -1.126,8.431 -4.045,5.282 -7.842,10.948 -11.273,16.828 -1.587,2.722 -4.446,4.233 -7.381,4.233 -1.459,0 -2.944,-0.375 -4.292,-1.161 -4.07,-2.381 -5.444,-7.603 -3.072,-11.674 2.918,-4.992 6.076,-9.847 9.412,-14.49 -1.903,-3.866 -4.156,-7.535 -6.758,-10.974 -5.717,1.229 -11.366,2.15 -16.853,2.722 -4.736,0.418 -8.892,-2.91 -9.387,-7.586 -0.487,-4.692 2.909,-8.891 7.594,-9.386 z m -10.325,122.018 c 1.391,-13.201 3.951,-26.214 7.62,-38.673 1.34,-4.523 6.11,-7.1 10.607,-5.769 4.514,1.323 7.1,6.067 5.769,10.59 -3.379,11.469 -5.743,23.458 -7.014,35.627 -0.469,4.386 -4.173,7.646 -8.482,7.646 -0.299,0 -0.597,-0.017 -0.905,-0.043 -4.685,-0.494 -8.082,-4.693 -7.595,-9.378 z m 7.594,37.803 c 4.719,-0.478 8.892,2.91 9.387,7.595 1.28,12.177 3.644,24.166 7.023,35.627 1.331,4.523 -1.254,9.267 -5.777,10.598 -0.802,0.239 -1.613,0.35 -2.415,0.35 -3.686,0 -7.091,-2.406 -8.183,-6.118 -3.669,-12.459 -6.238,-25.463 -7.629,-38.665 -0.487,-4.694 2.91,-8.892 7.594,-9.387 z m 45.867,108.331 c -3.712,9.054 -8.892,17.34 -15.411,24.636 -1.638,1.835 -3.959,2.85 -6.366,2.85 -0.589,0 -1.178,-0.068 -1.775,-0.188 -6.656,-1.417 -13.466,-2.534 -20.25,-3.319 -4.676,-0.538 -8.038,-4.779 -7.492,-9.455 0.546,-4.685 4.804,-8.073 9.463,-7.492 5.589,0.64 11.213,1.502 16.76,2.551 2.842,-3.661 5.291,-7.595 7.339,-11.75 -3.336,-4.634 -6.494,-9.489 -9.412,-14.49 -2.372,-4.07 -0.998,-9.293 3.072,-11.665 4.07,-2.372 9.293,-1.007 11.674,3.072 3.43,5.871 7.228,11.537 11.273,16.819 1.85,2.406 2.277,5.615 1.125,8.431 z"
   id="path2" />
	</g>
</g>
</svg>
