<?xml version="1.0" encoding="UTF-8" standalone="no"?>
<svg
   version="1.0"
   width="1280.000000pt"
   height="1278.000000pt"
   viewBox="0 0 1280.000000 1278.000000"
   preserveAspectRatio="xMidYMid meet"
   id="svg8"
   sodipodi:docname="modeling.svg"
   inkscape:version="1.1 (c68e22c387, 2021-05-23)"
   xmlns:inkscape="http://www.inkscape.org/namespaces/inkscape"
   xmlns:sodipodi="http://sodipodi.sourceforge.net/DTD/sodipodi-0.dtd"
   xmlns="http://www.w3.org/2000/svg"
   xmlns:svg="http://www.w3.org/2000/svg">
  <defs
     id="defs12" />
  <sodipodi:namedview
     id="namedview10"
     pagecolor="#ffffff"
     bordercolor="#666666"
     borderopacity="1.0"
     inkscape:pageshadow="2"
     inkscape:pageopacity="0.0"
     inkscape:pagecheckerboard="0"
     inkscape:document-units="pt"
     showgrid="false"
     inkscape:zoom="0.2209507"
     inkscape:cx="1461.8646"
     inkscape:cy="1984.6056"
     inkscape:window-width="1920"
     inkscape:window-height="1111"
     inkscape:window-x="-9"
     inkscape:window-y="-9"
     inkscape:window-maximized="1"
     inkscape:current-layer="svg8" />
  <metadata
     id="metadata2">
Created by potrace 1.15, written by Peter Selinger 2001-2017
</metadata>
  <path
     style="fill:#000000;stroke-width:3.21545"
     d="M 359.23886,1123.0104 C 205.85759,1036.7882 80.334451,965.46241 80.298541,964.50871 c -0.0402,-0.9539 47.127239,-28.261 104.806799,-60.68255 l 104.87205,-58.94832 6.86486,8.21602 c 3.77574,4.51891 48.10313,30.95486 98.50531,58.74667 94.11919,51.89738 240.91816,129.96537 244.38684,129.96537 2.73059,0 168.03179,-88.11199 259.61184,-138.38329 42.01451,-23.06308 79.68111,-45.61558 83.70341,-50.11667 l 7.3133,-8.18359 104.42355,58.85788 c 57.4331,32.37178 104.393,59.62398 104.3555,60.56018 -0.067,1.7337 -547.39509,310.17689 -556.20475,313.44699 -2.81821,1.0465 -120.75423,-63.3792 -283.69839,-154.977 z M 473.42339,897.85681 334.45645,821.5476 334.3493,669.91218 334.24215,518.27677 471.70266,593.91421 c 75.60327,41.6007 138.56019,76.64348 139.90424,77.87312 1.34406,1.2299 2.06754,69.76777 1.60773,152.30704 l -0.83601,150.07164 z m 192.79439,-74.8384 0.83468,-151.46085 139.06823,-76.58948 139.06826,-76.58962 -0.054,151.58464 -0.054,151.5845 -23.25733,12.46443 c -23.01164,12.33272 -112.81421,61.74067 -193.67636,106.55748 -22.99047,12.7423 -46.51766,25.5847 -52.28269,28.5387 l -10.4817,5.371 0.83467,-151.4608 z M 52.081751,611.07038 52.901691,308.25212 332.46702,154.12607 C 486.22785,69.356744 612.49041,2.101516e-5 613.05031,2.101516e-5 c 0.56002,0 0.64041,60.37222298484 0.17819,134.16036898484 l -0.83871,134.16025 -142.15291,80.47108 c -78.18421,44.25906 -152.32754,86.67742 -164.76303,94.26307 l -22.60998,13.79213 -0.83333,165.78247 -0.83334,165.78246 -110.93304,61.17904 c -61.01317,33.64848 -112.749099,61.8808 -114.968829,62.73839 -3.22336,1.24599 -3.8706,-59.39486 -3.21546,-301.2589 z M 1110.7854,850.65467 998.24455,788.41319 l -0.8334,-165.78313 -0.832,-165.78314 -22.4966,-13.79213 c -12.373,-7.58565 -86.51638,-49.99195 -164.76289,-94.23628 L 667.05326,268.37438 666.21457,134.18719 C 665.75234,60.384304 665.89034,2.101516e-5 666.51869,2.101516e-5 c 0.99545,0 93.41727,50.84471298484 477.22581,262.53830898484 l 84.4056,46.55476 v 302.04749 c 0,166.12599 -1.0853,301.98171 -2.4116,301.90146 -1.3264,-0.0804 -53.055,-28.15462 -114.9523,-62.38737 z M 500.73811,548.48458 C 425.18131,505.70113 362.6794,470.01393 361.84512,469.17965 360.2658,467.60033 630.60438,314.23379 637.94379,312.54528 c 3.09701,-0.71275 275.43951,149.75598 280.85526,155.17174 0.87353,0.87353 -274.72085,157.1589 -278.83288,158.12179 -1.01823,0.23848 -63.67127,-34.57091 -139.22806,-77.35423 z"
     id="path946"
     sodipodi:nodetypes="scscssssscssssccccsssccccccccssscccccssscsscccssscccccsscssscssscssssss" />
</svg>
