<?xml version="1.0" encoding="UTF-8" standalone="no"?>
<svg
   version="1.0"
   width="1280.000000pt"
   height="1278.000000pt"
   viewBox="0 0 1280.000000 1278.000000"
   preserveAspectRatio="xMidYMid meet"
   id="svg8"
   sodipodi:docname="ornament.svg"
   inkscape:version="1.1 (c68e22c387, 2021-05-23)"
   xmlns:inkscape="http://www.inkscape.org/namespaces/inkscape"
   xmlns:sodipodi="http://sodipodi.sourceforge.net/DTD/sodipodi-0.dtd"
   xmlns="http://www.w3.org/2000/svg"
   xmlns:svg="http://www.w3.org/2000/svg">
  <defs
     id="defs12" />
  <sodipodi:namedview
     id="namedview10"
     pagecolor="#ffffff"
     bordercolor="#666666"
     borderopacity="1.0"
     inkscape:pageshadow="2"
     inkscape:pageopacity="0.0"
     inkscape:pagecheckerboard="0"
     inkscape:document-units="pt"
     showgrid="false"
     inkscape:zoom="0.2209507"
     inkscape:cx="525.00399"
     inkscape:cy="414.11953"
     inkscape:window-width="1920"
     inkscape:window-height="1111"
     inkscape:window-x="-9"
     inkscape:window-y="-9"
     inkscape:window-maximized="1"
     inkscape:current-layer="svg8" />
  <metadata
     id="metadata2">
Created by potrace 1.15, written by Peter Selinger 2001-2017
</metadata>
  <path
     style="fill:#000000;stroke-width:13.7993"
     d="m 467.96759,1261.8945 c -57.44256,-28.7965 -109.31844,-115.7856 -109.62893,-183.835 -0.33118,-71.4371 49.52863,-138.13921 123.736,-165.55162 33.6097,-12.41527 63.37627,-29.37661 66.14856,-37.69195 5.30999,-15.92858 -10.45439,-20.82088 -138.02108,-42.8365 -97.53932,-16.8334 -148.5362,-42.43368 -195.34497,-98.06245 -45.94355,-54.60181 -54.42878,-89.7809 -47.58292,-197.29287 4.19916,-65.95081 19.32323,-115.51449 63.06441,-206.67175 31.64604,-65.95326 61.62651,-141.70259 66.62188,-168.33188 8.18301,-43.61587 3.89141,-53.17151 -43.26924,-96.369417 C 195.82374,12.246533 197.98885,-1.7094376 263.78828,0.16134038 375.48712,3.3372604 441.32519,119.71199 489.41178,398.97615 c 18.2662,106.08414 40.07882,210.99978 48.47021,233.14594 21.7395,57.36803 68.12187,102.36288 105.52086,102.36288 38.89485,0 42.91321,-34.63623 6.29388,-54.23476 -36.21639,-19.38187 -70.85138,-98.85178 -70.49258,-161.7405 0.42777,-75.70586 45.02588,-164.79763 98.93993,-197.66838 100.26473,-61.12997 259.78244,-21.45218 347.00402,86.31203 52.9908,65.47198 68.5826,187.91581 29.4367,231.17139 -34.0305,37.60295 -44.5113,34.39806 -67.50915,-20.64313 -42.88842,-102.64742 -162.90962,-67.96676 -170.75736,49.34136 -5.32786,79.63701 45.6042,158.02711 168.98416,260.09152 88.00945,72.80333 140.90235,134.0257 127.43005,147.4974 -3.6017,3.6016 -52.0621,-21.776 -107.6901,-56.3946 -86.95794,-54.11547 -111.41594,-62.94277 -174.38926,-62.94277 -83.79935,0 -149.80162,23.8443 -189.62102,68.50347 -22.79238,25.5611 -26.90873,47.0502 -23.77352,124.0968 2.56806,63.094 -1.89879,97.6702 -13.83247,107.0809 -35.5071,27.9988 -88.0771,30.6918 -135.45854,6.9388 z"
     id="path1230" />
</svg>
