<?xml version="1.0" encoding="UTF-8" standalone="no"?>
<svg
   version="1.0"
   width="1280.000000pt"
   height="1278.000000pt"
   viewBox="0 0 1280.000000 1278.000000"
   preserveAspectRatio="xMidYMid meet"
   id="svg8"
   sodipodi:docname="robot.svg"
   inkscape:version="1.1 (c68e22c387, 2021-05-23)"
   xmlns:inkscape="http://www.inkscape.org/namespaces/inkscape"
   xmlns:sodipodi="http://sodipodi.sourceforge.net/DTD/sodipodi-0.dtd"
   xmlns="http://www.w3.org/2000/svg"
   xmlns:svg="http://www.w3.org/2000/svg">
  <defs
     id="defs12" />
  <sodipodi:namedview
     id="namedview10"
     pagecolor="#ffffff"
     bordercolor="#666666"
     borderopacity="1.0"
     inkscape:pageshadow="2"
     inkscape:pageopacity="0.0"
     inkscape:pagecheckerboard="0"
     inkscape:document-units="pt"
     showgrid="false"
     inkscape:zoom="0.15623574"
     inkscape:cx="-556.85082"
     inkscape:cy="1699.3551"
     inkscape:window-width="1920"
     inkscape:window-height="1111"
     inkscape:window-x="-9"
     inkscape:window-y="-9"
     inkscape:window-maximized="1"
     inkscape:current-layer="svg8" />
  <metadata
     id="metadata2">
Created by potrace 1.15, written by Peter Selinger 2001-2017
</metadata>
  <path
     style="fill:#000000;stroke-width:4.00006"
     d="m 281.62943,1240.9857 1.15001,-37.0005 113.00175,-1.0617 113.00173,-1.0616 v -70.1074 c 0,-86.9119 5.67074,-117.9752 30.99264,-169.77181 15.68407,-32.0822 24.21787,-43.64104 54.79336,-74.21651 30.57543,-30.57547 42.13425,-39.10927 74.21641,-54.79334 84.33279,-41.2278 172.67922,-41.6768 254.00388,-1.29003 79.45099,39.45561 132.32099,103.97858 154.29439,188.30139 6.8428,26.2594 8.4617,45.4515 9.0235,106.9747 l 0.685,74.974 37.0005,0.033 37.0006,0.033 V 1239.9995 1278 H 720.63634 280.47958 l 1.15001,-37.0005 z m 543.15849,-162.5684 c 14.96224,-10.7803 20.55896,-24.1412 18.55908,-44.3049 -5.86366,-59.12351 -94.56021,-50.54061 -94.56021,9.1503 0,14.6548 16.60119,36.1329 32.13895,41.5807 16.16107,5.6664 29.86564,3.6585 43.86218,-6.4261 z M 1013.4843,802.42387 c -53.11201,-40.43096 -125.42446,-67.02886 -193.69642,-71.2456 -21.45035,-1.32501 -38.96899,-2.58687 -38.93041,-2.80454 0.033,-0.21833 20.48955,-56.1967 45.44652,-124.39774 24.95685,-68.20105 44.63797,-125.32176 43.73566,-126.93512 -0.90175,-1.61335 -60.15809,-50.8926 -131.6794,-109.50951 -106.22861,-87.06233 -131.38834,-105.93412 -137.40972,-103.0684 -4.05415,1.92935 -66.50089,39.3706 -138.77066,83.20276 l -131.39952,79.69489 v 112.30806 112.30805 l -35.00054,1.15502 -35.00054,1.15502 v 35.84489 35.84472 h -40.0006 -40.00062 v -35.85039 -35.85039 l -37.00057,-1.15002 -37.00056,-1.15001 -1.24003,-96.00148 c -0.77168,-59.76891 0.42501,-103.73425 3.17256,-116.49061 8.7743,-40.74596 14.52305,-46.19338 210.43906,-199.41272 C 420.14723,161.08303 524.63966,78.931442 551.35374,57.511772 619.4476,2.9132783 625.607,0.04340031 674.78532,5.6030517e-4 708.30401,-0.03277969 717.71583,1.4255883 732.86615,8.9738723 748.74708,16.886329 1101.4362,302.41637 1136.0267,335.36487 c 7.2789,6.93328 18.9331,24.17487 25.898,38.31443 10.8021,21.92967 12.6783,30.17745 12.7657,56.11635 0.1001,29.41246 -2.0497,36.3309 -65.6278,211.29541 -36.1517,99.48787 -66.7521,180.82161 -68.001,180.74161 -1.2483,-0.0833 -13.6587,-8.81447 -27.5775,-19.40997 z m 57.6968,-320.69043 c 42.0847,-26.00973 29.8187,-93.73276 -19.3898,-107.05497 -67.99991,-18.40978 -104.86281,77.23669 -42.5792,110.47837 20.2878,10.82783 40.7381,9.69814 61.969,-3.4234 z M 705.54326,187.51077 c 24.08549,-12.30419 35.5741,-45.04819 25.27101,-72.02627 -21.79,-57.056038 -96.74613,-52.779978 -114.51668,6.53277 -3.91693,13.07336 -3.57728,18.62894 2.0372,33.33034 7.99781,20.94199 16.59538,29.46729 37.18575,36.87323 16.18838,5.82259 32.39166,4.2969 50.02272,-4.71007 z"
     id="path1647" />
</svg>
