<?xml version="1.0" standalone="no"?>
<!DOCTYPE svg PUBLIC "-//W3C//DTD SVG 20010904//EN"
 "http://www.w3.org/TR/2001/REC-SVG-20010904/DTD/svg10.dtd">
<svg version="1.0" xmlns="http://www.w3.org/2000/svg"
 width="1280.000000pt" height="1278.000000pt" viewBox="0 0 1280.000000 1278.000000"
 preserveAspectRatio="xMidYMid meet">
<metadata>
Created by potrace 1.15, written by Peter Selinger 2001-2017
</metadata>
<g transform="translate(0.000000,1278.000000) scale(0.100000,-0.100000)"
fill="#000000" stroke="none">
<path d="M6360 12751 c-41 -16 -343 -143 -670 -283 -327 -140 -636 -272 -687
-293 l-92 -39 -318 -589 -318 -589 -80 -40 c-44 -22 -128 -67 -187 -100 l-106
-59 -59 10 c-32 5 -83 19 -113 30 -67 25 -177 107 -226 167 l-37 45 10 197 10
197 -116 267 c-64 147 -119 267 -123 265 -3 -1 -225 -290 -492 -642 l-485
-640 -1 -729 0 -728 -30 -57 c-70 -131 -171 -226 -274 -256 -105 -32 -281 -13
-385 40 -45 22 -47 25 -85 134 l-38 111 -291 245 c-160 135 -292 243 -294 242
-4 -5 -193 -1622 -193 -1656 0 -16 123 -260 315 -622 173 -327 326 -628 341
-669 31 -90 43 -228 24 -284 -17 -53 -113 -147 -182 -179 -64 -30 -165 -57
-219 -57 -20 0 -76 14 -125 31 -222 77 -818 279 -825 279 -4 0 28 -93 71 -207
42 -115 170 -458 284 -764 l208 -556 596 -359 c557 -335 602 -364 678 -439
103 -102 136 -162 142 -266 10 -166 -52 -300 -177 -380 l-45 -29 -172 0 -172
0 -307 -113 c-168 -62 -305 -117 -304 -123 2 -5 299 -242 662 -526 l659 -518
112 0 c61 0 379 -7 706 -15 617 -15 624 -15 709 -60 135 -69 207 -240 167
-395 -37 -142 -77 -197 -399 -543 -164 -175 -297 -321 -295 -322 3 -3 197 -30
1203 -170 176 -25 345 -47 376 -51 l56 -6 544 307 c299 170 567 319 594 331
28 13 95 31 149 40 171 29 285 -4 366 -108 56 -70 150 -273 150 -324 0 -6 -34
-66 -75 -133 l-75 -120 -46 -306 c-25 -169 -44 -314 -42 -323 2 -15 126 31
755 278 l752 295 328 574 c348 610 372 646 486 721 128 84 299 108 407 58 63
-29 157 -98 214 -157 l40 -41 -13 -183 -12 -184 127 -277 c70 -152 131 -275
135 -274 5 2 230 284 500 628 l491 625 -3 705 c-2 699 -1 706 20 785 59 211
167 344 308 376 44 10 59 9 119 -9 70 -21 170 -76 212 -115 13 -12 69 -93 124
-179 l100 -158 217 -171 c119 -95 222 -176 229 -182 7 -5 14 -8 16 -6 4 4 29
188 161 1191 l66 496 -319 524 c-336 550 -343 564 -377 739 -33 177 -12 313
61 386 51 51 142 98 226 118 106 25 116 22 242 -60 64 -42 127 -80 140 -85 29
-11 682 -160 701 -160 7 0 -111 293 -287 708 -164 389 -318 752 -341 806 l-42
100 -515 267 -515 267 -75 90 c-187 223 -273 460 -211 580 23 44 96 116 165
162 l49 33 188 -12 188 -11 281 132 c154 73 280 135 280 138 -1 3 -282 224
-626 493 l-625 487 -652 0 -652 0 -80 31 c-128 49 -289 137 -350 191 -79 71
-99 114 -99 213 1 92 22 158 82 251 37 58 39 59 167 114 l130 56 214 264 213
265 -28 7 c-16 5 -348 48 -739 98 -390 49 -757 96 -815 103 l-104 14 -547
-343 -546 -343 -134 9 c-74 5 -200 9 -281 10 l-147 0 -31 38 c-60 73 -110 212
-110 311 0 39 12 64 94 198 l95 153 30 267 c17 148 34 287 37 311 4 23 2 42
-2 42 -5 -1 -43 -14 -84 -29z m336 -5046 c474 -83 866 -420 1019 -878 47 -140
65 -255 65 -411 0 -367 -124 -669 -380 -927 -183 -184 -374 -293 -627 -356
-100 -26 -122 -28 -308 -27 -192 0 -205 2 -320 32 -150 40 -345 134 -465 225
-241 183 -411 441 -486 739 -35 139 -44 377 -20 518 71 413 320 759 686 954
100 53 264 110 376 130 108 20 349 20 460 1z"/>
</g>
</svg>
